<svg width="137" height="33" viewBox="0 0 137 33" fill="none" xmlns="http://www.w3.org/2000/svg">
<path d="M20.98 9.9L17.52 24H12.7L10.76 15.36L8.78 24H3.96L0.54 9.9H4.78L6.42 19.54L8.64 9.9H12.94L15.1 19.46L16.74 9.9H20.98ZM33.3634 18.26C33.3634 18.5667 33.3434 18.8733 33.3034 19.18H25.8834C25.9234 19.7933 26.0901 20.2533 26.3834 20.56C26.6901 20.8533 27.0768 21 27.5434 21C28.1968 21 28.6634 20.7067 28.9434 20.12H33.1234C32.9501 20.8933 32.6101 21.5867 32.1034 22.2C31.6101 22.8 30.9834 23.2733 30.2234 23.62C29.4634 23.9667 28.6234 24.14 27.7034 24.14C26.5968 24.14 25.6101 23.9067 24.7434 23.44C23.8901 22.9733 23.2168 22.3067 22.7234 21.44C22.2434 20.5733 22.0034 19.5533 22.0034 18.38C22.0034 17.2067 22.2434 16.1933 22.7234 15.34C23.2034 14.4733 23.8701 13.8067 24.7234 13.34C25.5901 12.8733 26.5834 12.64 27.7034 12.64C28.8101 12.64 29.7901 12.8667 30.6434 13.32C31.4968 13.7733 32.1634 14.4267 32.6434 15.28C33.1234 16.12 33.3634 17.1133 33.3634 18.26ZM29.3634 17.28C29.3634 16.8 29.2034 16.4267 28.8834 16.16C28.5634 15.88 28.1634 15.74 27.6834 15.74C27.2034 15.74 26.8101 15.8733 26.5034 16.14C26.1968 16.3933 25.9968 16.7733 25.9034 17.28H29.3634ZM38.8877 14.34C39.1943 13.8067 39.6277 13.3933 40.1877 13.1C40.7477 12.7933 41.4077 12.64 42.1677 12.64C43.061 12.64 43.8677 12.8733 44.5877 13.34C45.321 13.8067 45.8943 14.4733 46.3077 15.34C46.7343 16.2067 46.9477 17.22 46.9477 18.38C46.9477 19.54 46.7343 20.56 46.3077 21.44C45.8943 22.3067 45.321 22.9733 44.5877 23.44C43.8677 23.9067 43.061 24.14 42.1677 24.14C41.4077 24.14 40.7477 23.9933 40.1877 23.7C39.6277 23.3933 39.1943 22.9733 38.8877 22.44V24H34.9677V9.2H38.8877V14.34ZM42.9677 18.38C42.9677 17.6467 42.7677 17.08 42.3677 16.68C41.981 16.2667 41.501 16.06 40.9277 16.06C40.3543 16.06 39.8677 16.2667 39.4677 16.68C39.081 17.0933 38.8877 17.66 38.8877 18.38C38.8877 19.1133 39.081 19.6867 39.4677 20.1C39.8677 20.5133 40.3543 20.72 40.9277 20.72C41.501 20.72 41.981 20.5133 42.3677 20.1C42.7677 19.6733 42.9677 19.1 42.9677 18.38ZM53.9414 20.3L56.0414 12.78H60.2214L56.3614 24H51.4814L47.6214 12.78H51.8014L53.9414 20.3Z" fill="#5174B4"/>
<path d="M72.2767 15.408C72.3971 15.69 72.4993 15.9799 72.583 16.2776L65.7597 19.1931C66.0375 19.7414 66.3715 20.0989 66.7618 20.2656C67.159 20.4149 67.5722 20.3978 68.0014 20.2144C68.6021 19.9577 68.916 19.5046 68.943 18.8551L72.7868 17.2127C72.9313 17.9919 72.891 18.7631 72.6661 19.5262C72.4482 20.2718 72.0579 20.9533 71.4953 21.5707C70.9326 22.1881 70.2283 22.6775 69.3823 23.039C68.3646 23.4739 67.3656 23.647 66.3853 23.5584C65.4172 23.4645 64.5361 23.1161 63.7419 22.5129C62.96 21.9046 62.3385 21.0609 61.8775 19.9819C61.4164 18.903 61.239 17.8768 61.3451 16.9035C61.4459 15.918 61.797 15.043 62.3984 14.2786C63.012 13.5089 63.8337 12.904 64.8637 12.4639C65.8813 12.0291 66.8716 11.8525 67.8344 11.9341C68.7972 12.0156 69.667 12.3545 70.4437 12.9506C71.2151 13.5344 71.8261 14.3536 72.2767 15.408ZM68.2133 16.0785C68.0247 15.6371 67.7309 15.3567 67.3318 15.2372C66.9276 15.1054 66.5047 15.1339 66.0633 15.3225C65.6219 15.5111 65.3126 15.7882 65.1354 16.154C64.9529 16.5074 64.9183 16.9354 65.0316 17.438L68.2133 16.0785Z" fill="#5174B4"/>
<path d="M130.277 15.408C130.397 15.69 130.499 15.9799 130.583 16.2776L123.76 19.1931C124.038 19.7414 124.372 20.0989 124.762 20.2656C125.159 20.4149 125.572 20.3978 126.001 20.2144C126.602 19.9577 126.916 19.5046 126.943 18.8551L130.787 17.2127C130.931 17.9919 130.891 18.7631 130.666 19.5262C130.448 20.2718 130.058 20.9533 129.495 21.5707C128.933 22.1881 128.228 22.6775 127.382 23.039C126.365 23.4739 125.366 23.647 124.385 23.5584C123.417 23.4645 122.536 23.1161 121.742 22.5129C120.96 21.9046 120.339 21.0609 119.877 19.9819C119.416 18.903 119.239 17.8768 119.345 16.9035C119.446 15.918 119.797 15.043 120.398 14.2786C121.012 13.5089 121.834 12.904 122.864 12.4639C123.881 12.0291 124.872 11.8525 125.834 11.9341C126.797 12.0156 127.667 12.3545 128.444 12.9506C129.215 13.5344 129.826 14.3536 130.277 15.408ZM126.213 16.0785C126.025 15.6371 125.731 15.3567 125.332 15.2372C124.928 15.1054 124.505 15.1339 124.063 15.3225C123.622 15.5111 123.313 15.7882 123.135 16.154C122.953 16.5074 122.918 16.9354 123.032 17.438L126.213 16.0785Z" fill="#5174B4"/>
<path d="M82.46 12.68C83.7533 12.68 84.78 13.1133 85.54 13.98C86.3 14.8333 86.68 15.9933 86.68 17.46V24H82.76V17.98C82.76 17.34 82.5933 16.84 82.26 16.48C81.9267 16.1067 81.48 15.92 80.92 15.92C80.3333 15.92 79.8733 16.1067 79.54 16.48C79.2067 16.84 79.04 17.34 79.04 17.98V24H75.12V12.78H79.04V14.38C79.3867 13.8733 79.8533 13.4667 80.44 13.16C81.0267 12.84 81.7 12.68 82.46 12.68ZM95.4509 20.66V24H93.7509C90.8843 24 89.4509 22.58 89.4509 19.74V16.04H88.0709V12.78H89.4509V10.06H93.3909V12.78H95.4309V16.04H93.3909V19.8C93.3909 20.1067 93.4576 20.3267 93.5909 20.46C93.7376 20.5933 93.9776 20.66 94.3109 20.66H95.4509ZM108.729 12.78V24H104.789V22.4C104.456 22.9067 103.996 23.32 103.409 23.64C102.822 23.9467 102.149 24.1 101.389 24.1C100.082 24.1 99.0489 23.6733 98.2889 22.82C97.5422 21.9533 97.1689 20.78 97.1689 19.3V12.78H101.069V18.8C101.069 19.44 101.236 19.9467 101.569 20.32C101.916 20.68 102.369 20.86 102.929 20.86C103.502 20.86 103.956 20.68 104.289 20.32C104.622 19.9467 104.789 19.44 104.789 18.8V12.78H108.729ZM114.88 14.76C115.32 14.12 115.853 13.6133 116.48 13.24C117.107 12.8667 117.78 12.68 118.5 12.68V16.86H117.4C116.547 16.86 115.913 17.0267 115.5 17.36C115.087 17.6933 114.88 18.2733 114.88 19.1V24H110.96V12.78H114.88V14.76Z" fill="#5174B4"/>
</svg>
